# xmcd
#
# Track frame offsets:
#	150
#	10371
#	24802
#	37973
#	48392
#	59954
#	73753
#	86672
#	97610
#	109253
#	122433
#	133595
#	144643
#	156534
#	168038
#	179988
#	191443
#	205263
#	217655
#	228384
#	240271
#	251977
#	262944
#	275680
#	287895
#
# Disc length: 4032 seconds
#
# Revision: 1
# Processed by: cddbd v1.5.1PL0 Copyright (c) Steve Scherf et al.
# Submitted via: audiograbber 1.81.03
#
DISCID=6b0fbe19
DTITLE=Cecil Gant - We're Gonna Rock #2
DYEAR=1900
DGENRE=blues
TTITLE0=We're gonna rock
TTITLE1=Special delivery
TTITLE2=Hit that jive jack
TTITLE3=I've heard that Jive before
TTITLE4=Loose as a Goose
TTITLE5=Train Time blues
TTITLE6=Jump Jack Jump
TTITLE7=Fare thee well, baby
TTITLE8=Anna Mae
TTITLE9=Nashville Jumps
TTITLE10=Cecil's Jam Session
TTITLE11=I am good man but a poor man
TTITLE12=Sloppy JOe's
TTITLE13=You can't do Me right
TTITLE14=Night street Jive
TTITLE15=Another day another dollar
TTITLE16=Boogie Woogie baby
TTITLE17=Baby, I'm losing you
TTITLE18=Bullet Boogie
TTITLE19=I ain't gonna cry no more
TTITLE20=Screwy boogie
TTITLE21=Deal yourself another hand
TTITLE22=Shotgun boogie
TTITLE23=I'm all alone now
TTITLE24=Rock Little baby
EXTD=
EXTT0=
EXTT1=
EXTT2=
EXTT3=
EXTT4=
EXTT5=
EXTT6=
EXTT7=
EXTT8=
EXTT9=
EXTT10=
EXTT11=
EXTT12=
EXTT13=
EXTT14=
EXTT15=
EXTT16=
EXTT17=
EXTT18=
EXTT19=
EXTT20=
EXTT21=
EXTT22=
EXTT23=
EXTT24=
PLAYORDER=
